<?xml version="1.0" encoding="UTF-8"?>
<svg xmlns="http://www.w3.org/2000/svg" xmlns:xlink="http://www.w3.org/1999/xlink" viewBox="0 0 50 50" width="50px" height="50px">
<g id="surface199906320">
<path style=" stroke:none;fill-rule:nonzero;fill:rgb(100%,100%,100%);fill-opacity:1;" d="M 9 4 C 6.25 4 4 6.25 4 9 L 4 41 C 4 43.75 6.25 46 9 46 L 25.832031 46 C 25.941406 46.019531 26.050781 46.019531 26.160156 46 L 31.832031 46 C 31.941406 46.019531 32.050781 46.019531 32.160156 46 L 41 46 C 43.75 46 46 43.75 46 41 L 46 9 C 46 6.25 43.75 4 41 4 Z M 9 6 L 41 6 C 42.667969 6 44 7.332031 44 9 L 44 41 C 44 42.667969 42.667969 44 41 44 L 33 44 L 33 30 L 36.820312 30 L 38.222656 23 L 33 23 L 33 21 C 33 20.441406 33.054688 20.398438 33.238281 20.277344 C 33.425781 20.15625 34.003906 20 35 20 L 38 20 L 38 14.371094 L 37.429688 14.097656 C 37.429688 14.097656 35.132812 13 32 13 C 29.75 13 27.902344 13.894531 26.71875 15.375 C 25.535156 16.855469 25 18.832031 25 21 L 25 23 L 22 23 L 22 30 L 25 30 L 25 44 L 9 44 C 7.332031 44 6 42.667969 6 41 L 6 9 C 6 7.332031 7.332031 6 9 6 Z M 32 15 C 34.078125 15 35.386719 15.457031 36 15.699219 L 36 18 L 35 18 C 33.847656 18 32.925781 18.09375 32.152344 18.597656 C 31.375 19.105469 31 20.0625 31 21 L 31 25 L 35.777344 25 L 35.179688 28 L 31 28 L 31 44 L 27 44 L 27 28 L 24 28 L 24 25 L 27 25 L 27 21 C 27 19.167969 27.464844 17.644531 28.28125 16.625 C 29.097656 15.605469 30.25 15 32 15 Z M 32 15 "/>
</g>
</svg>
